<svg xmlns="http://www.w3.org/2000/svg" viewBox="0 0 24 24" role="img" aria-labelledby="title" fill="none" stroke="#7c2d1f" stroke-width="1.6" stroke-linecap="round" stroke-linejoin="round">
  <title id="title">Catering tray</title>
  <path fill="#fff6e8" d="M4.8 16.5h14.4c-.6 2.1-2.2 3.2-7.2 3.2s-6.6-1.1-7.2-3.2Z"/>
  <path d="M3.8 16.5h16.4"/>
  <path fill="#d9a441" d="M7.5 14.2c.3-3 2.1-5.1 4.5-5.1s4.2 2.1 4.5 5.1h-9Z"/>
  <path d="M10.5 8.8V7.1a1.5 1.5 0 0 1 3 0v1.7"/>
  <path fill="#fff1d7" d="M9.4 13.7c.1-1.4 1-2.2 2.6-2.2s2.5.8 2.6 2.2"/>
  <path d="M10.8 13.2c.8.4 1.6.4 2.4 0"/>
</svg>
