<svg xmlns="http://www.w3.org/2000/svg" viewBox="0 0 24 24" role="img" aria-labelledby="title" fill="none" stroke="#7c2d1f" stroke-width="1.6" stroke-linecap="round" stroke-linejoin="round">
  <title id="title">Dumpling mascot</title>
  <path fill="#fff1d7" d="M4.4 13.6c0-4.4 3.2-8.1 7.6-8.1s7.6 3.7 7.6 8.1c0 3.5-2.8 5.9-7.6 5.9s-7.6-2.4-7.6-5.9Z"/>
  <path d="M7.4 8.3c.6 1.2 1.6 1.8 3 1.9M10 6.1c.4 1.6 1 2.5 2 3M14 6.1c-.4 1.6-1 2.5-2 3M16.6 8.3c-.6 1.2-1.6 1.8-3 1.9"/>
  <path d="M8.7 13.5c.5-.5 1.1-.5 1.6 0M13.7 13.5c.5-.5 1.1-.5 1.6 0M10 16c1 .8 3 .8 4 0"/>
</svg>
