<svg xmlns="http://www.w3.org/2000/svg" viewBox="0 0 24 24" role="img" aria-labelledby="title" fill="none" stroke="#7c2d1f" stroke-width="1.6" stroke-linecap="round" stroke-linejoin="round">
  <title id="title">Favorite mascot dish</title>
  <path fill="#d9a441" d="m12 3.6 2.4 4.8 5.3.8-3.8 3.7.9 5.3-4.8-2.5-4.8 2.5.9-5.3-3.8-3.7 5.3-.8L12 3.6Z"/>
  <path fill="#fff1d7" d="M9.2 12.9c.2-1.6 1.2-2.5 2.8-2.5s2.6.9 2.8 2.5c-.4 1.4-1.4 2.2-2.8 2.2s-2.4-.8-2.8-2.2Z"/>
  <path d="M10.7 12.7c.3-.3.6-.3.9 0M12.4 12.7c.3-.3.6-.3.9 0"/>
</svg>
