<svg xmlns="http://www.w3.org/2000/svg" viewBox="0 0 24 24" role="img" aria-labelledby="title" fill="none" stroke="#7c2d1f" stroke-width="1.6" stroke-linecap="round" stroke-linejoin="round">
  <title id="title">Waving mascot</title>
  <path fill="#fff6e8" d="M8.5 8.1c.6-1.7 1.7-2.6 3.5-2.6s2.9.9 3.5 2.6c1.5.8 2.5 2.3 2.5 4.3 0 3.2-2.5 5.5-6 5.5s-6-2.3-6-5.5c0-2 1-3.5 2.5-4.3Z"/>
  <path fill="#b91c1c" d="M8.3 16.7h7.4l.8 4.1h-9l.8-4.1Z"/>
  <path d="M8 8.2h8"/>
  <path d="M9.1 12.4c.4-.5.9-.5 1.3 0M13.6 12.4c.4-.5.9-.5 1.3 0M10 14.8c1 .9 3 .9 4 0"/>
  <path d="M17 10.1l2.7-3.8M18.2 11.1l3.4-1.8M17.8 12.7l3.8.8"/>
  <path d="M16.8 13.9c1.3.4 2.5-.2 2.8-1.5"/>
</svg>
