<svg xmlns="http://www.w3.org/2000/svg" viewBox="0 0 24 24" role="img" aria-labelledby="title" fill="none" stroke="#7c2d1f" stroke-width="1.6" stroke-linecap="round" stroke-linejoin="round">
  <title id="title">Luban mascot head</title>
  <path fill="#fff6e8" d="M8.2 6.8c.7-2.1 2-3.2 3.8-3.2s3.1 1.1 3.8 3.2c2.1.8 3.6 2.9 3.6 5.5 0 4.1-3.1 7.2-7.4 7.2s-7.4-3.1-7.4-7.2c0-2.6 1.5-4.7 3.6-5.5Z"/>
  <path d="M8.5 7.1c.6.9 1.5 1.4 3.5 1.4s2.9-.5 3.5-1.4"/>
  <path d="M8.7 12.3c.5-.6 1.2-.6 1.7 0"/>
  <path d="M13.6 12.3c.5-.6 1.2-.6 1.7 0"/>
  <path fill="#b91c1c" stroke="none" d="M9.5 15.1c1.2 1.3 3.8 1.3 5 0-.4 1.7-4.6 1.7-5 0Z"/>
  <circle cx="7.7" cy="14.1" r=".7" fill="#f3a28d" stroke="none"/>
  <circle cx="16.3" cy="14.1" r=".7" fill="#f3a28d" stroke="none"/>
</svg>
