<svg xmlns="http://www.w3.org/2000/svg" viewBox="0 0 24 24" role="img" aria-labelledby="title" fill="none" stroke="#7c2d1f" stroke-width="1.6" stroke-linecap="round" stroke-linejoin="round">
  <title id="title">Noodle bowl</title>
  <path fill="#fff6e8" d="M5 11.4h14c-.4 4.3-2.9 7-7 7s-6.6-2.7-7-7Z"/>
  <path fill="#b91c1c" d="M6.1 14.8h11.8c-.6 2.2-2.7 3.6-5.9 3.6s-5.3-1.4-5.9-3.6Z"/>
  <path d="M7.2 9.4c1.6-1.2 3-.4 4.4-.2 1.6.3 2.9-.9 5.2.2"/>
  <path d="M8.4 6.3c.7.7.7 1.3 0 2M12 5.4c.7.9.7 1.8 0 2.6M15.6 6.3c-.7.7-.7 1.3 0 2"/>
  <path d="M8 21h8"/>
</svg>
