<svg xmlns="http://www.w3.org/2000/svg" viewBox="0 0 24 24" role="img" aria-labelledby="title" fill="none" stroke="#7c2d1f" stroke-width="1.6" stroke-linecap="round" stroke-linejoin="round">
  <title id="title">Mascot order cart</title>
  <path d="M4 5h2l1.7 9.5h9.5l1.6-6.4H7.1"/>
  <circle cx="9.5" cy="19" r="1.4" fill="#b91c1c"/>
  <circle cx="16.2" cy="19" r="1.4" fill="#b91c1c"/>
  <path fill="#fff1d7" d="M10.1 9.7c.2-1.4 1-2.3 2-2.3s1.8.9 2 2.3c1 .4 1.6 1.2 1.6 2.2 0 1.6-1.4 2.6-3.6 2.6s-3.6-1-3.6-2.6c0-1 .6-1.8 1.6-2.2Z"/>
  <path d="M10.4 11.7c.3-.4.7-.4 1 0M12.8 11.7c.3-.4.7-.4 1 0"/>
</svg>
