<svg xmlns="http://www.w3.org/2000/svg" viewBox="0 0 24 24" role="img" aria-labelledby="title" fill="none" stroke="#7c2d1f" stroke-width="1.6" stroke-linecap="round" stroke-linejoin="round">
  <title id="title">Customer love mascot</title>
  <path fill="#fff1d7" d="M5.4 13c0-3.7 2.8-6.9 6.6-6.9s6.6 3.2 6.6 6.9c0 3-2.4 5.1-6.6 5.1S5.4 16 5.4 13Z"/>
  <path fill="#b91c1c" d="M12 15.9 8.9 13c-1.8-1.8.7-4.3 2.4-2.5l.7.8.7-.8c1.7-1.8 4.2.7 2.4 2.5L12 15.9Z"/>
  <path d="M7.9 12.2c.3-.4.8-.4 1.1 0M15 12.2c.3-.4.8-.4 1.1 0"/>
</svg>
