<svg xmlns="http://www.w3.org/2000/svg" viewBox="0 0 24 24" role="img" aria-labelledby="title" fill="none" stroke="#7c2d1f" stroke-width="1.6" stroke-linecap="round" stroke-linejoin="round">
  <title id="title">Mascot support chat</title>
  <path fill="#fff6e8" d="M4.5 5.4h15v10.2a2 2 0 0 1-2 2H11l-4.3 3v-3h-.2a2 2 0 0 1-2-2V5.4Z"/>
  <path fill="#fff1d7" d="M8.4 11.2c0-1.9 1.5-3.4 3.6-3.4s3.6 1.5 3.6 3.4c0 1.7-1.3 2.8-3.6 2.8s-3.6-1.1-3.6-2.8Z"/>
  <path d="M10.4 11c.3-.4.7-.4 1 0M12.6 11c.3-.4.7-.4 1 0M10.8 12.4c.6.5 1.8.5 2.4 0"/>
</svg>
