<svg xmlns="http://www.w3.org/2000/svg" viewBox="0 0 24 24" role="img" aria-labelledby="title" fill="none" stroke="#7c2d1f" stroke-width="1.6" stroke-linecap="round" stroke-linejoin="round">
  <title id="title">Takeout bag</title>
  <path fill="#fff1d7" d="M6.2 8.2h11.6l-.7 12H6.9l-.7-12Z"/>
  <path d="M9 8.2c0-2 1.1-3.4 3-3.4s3 1.4 3 3.4"/>
  <path fill="#fff6e8" d="M9.2 13.4c0-1.7 1.2-3.1 2.8-3.1s2.8 1.4 2.8 3.1c0 1.5-1.1 2.5-2.8 2.5s-2.8-1-2.8-2.5Z"/>
  <path d="M10.7 13.1c.3-.4.7-.4 1 0M12.3 13.1c.3-.4.7-.4 1 0M11.1 14.4c.5.5 1.3.5 1.8 0"/>
</svg>
