<svg xmlns="http://www.w3.org/2000/svg" viewBox="0 0 32 32" fill="none" role="img" focusable="false" aria-hidden="true">
        <path fill="#fff7ed" stroke="#7c2d12" stroke-width="1.8" stroke-linecap="round" stroke-linejoin="round" d="M9.2 10.7c1-3.5 3.3-5.2 6.8-5.2s5.8 1.7 6.8 5.2c3 1.2 5 4 5 7.5 0 5.3-4.8 8.7-11.8 8.7S4.2 23.5 4.2 18.2c0-3.5 2-6.3 5-7.5Z"/>
        <path stroke="#7c2d12" stroke-width="1.6" stroke-linecap="round" stroke-linejoin="round" d="M9.9 10.9c1.3 1.5 3.1 2.1 6.1 2.1s4.8-.6 6.1-2.1M11.1 17.1c.7-.7 1.4-.7 2.1 0M18.8 17.1c.7-.7 1.4-.7 2.1 0"/>
        <path fill="#b91c1c" d="M12.4 20.7c1.6 1.4 5.6 1.4 7.2 0-.6 2.1-6.6 2.1-7.2 0Z"/>
        <circle cx="9.7" cy="19" r="1" fill="#fca5a5"/>
        <circle cx="22.3" cy="19" r="1" fill="#fca5a5"/>
    
            <path stroke="#0f766e" stroke-width="1.4" stroke-linecap="round" d="M22.8 5.6V3.9"/>
            <circle cx="22.8" cy="3.3" r=".9" fill="#99f6e4" stroke="#0f766e" stroke-width="1.1"/>
            <rect x="19.2" y="6.3" width="7.3" height="6.2" rx="2" fill="#ccfbf1" stroke="#0f766e" stroke-width="1.4"/>
            <path stroke="#0f766e" stroke-width="1.1" stroke-linecap="round" d="M21.3 9.1h.1M24.2 9.1h.1M21.8 10.8c.7.5 1.6.5 2.3 0"/>
        </svg>
