<svg xmlns="http://www.w3.org/2000/svg" viewBox="0 0 32 32" fill="none" role="img" focusable="false" aria-hidden="true">
        <path fill="#fff7ed" stroke="#7c2d12" stroke-width="1.8" stroke-linecap="round" stroke-linejoin="round" d="M9.2 10.7c1-3.5 3.3-5.2 6.8-5.2s5.8 1.7 6.8 5.2c3 1.2 5 4 5 7.5 0 5.3-4.8 8.7-11.8 8.7S4.2 23.5 4.2 18.2c0-3.5 2-6.3 5-7.5Z"/>
        <path stroke="#7c2d12" stroke-width="1.6" stroke-linecap="round" stroke-linejoin="round" d="M9.9 10.9c1.3 1.5 3.1 2.1 6.1 2.1s4.8-.6 6.1-2.1M11.1 17.1c.7-.7 1.4-.7 2.1 0M18.8 17.1c.7-.7 1.4-.7 2.1 0"/>
        <path fill="#b91c1c" d="M12.4 20.7c1.6 1.4 5.6 1.4 7.2 0-.6 2.1-6.6 2.1-7.2 0Z"/>
        <circle cx="9.7" cy="19" r="1" fill="#fca5a5"/>
        <circle cx="22.3" cy="19" r="1" fill="#fca5a5"/>
    
            <rect x="19.1" y="6" width="8" height="7.2" rx="1.2" fill="#f5f3ff" stroke="#7c3aed" stroke-width="1.4"/>
            <circle cx="24.9" cy="8.2" r=".8" fill="#7c3aed"/>
            <path stroke="#7c3aed" stroke-width="1.2" stroke-linecap="round" stroke-linejoin="round" d="m20.4 12.1 2-2 1.3 1.3 1.1-1 1.4 1.7"/>
        </svg>
