<svg xmlns="http://www.w3.org/2000/svg" viewBox="0 0 32 32" fill="none" role="img" focusable="false" aria-hidden="true">
        <path fill="#fff7ed" stroke="#7c2d12" stroke-width="1.8" stroke-linecap="round" stroke-linejoin="round" d="M9.2 10.7c1-3.5 3.3-5.2 6.8-5.2s5.8 1.7 6.8 5.2c3 1.2 5 4 5 7.5 0 5.3-4.8 8.7-11.8 8.7S4.2 23.5 4.2 18.2c0-3.5 2-6.3 5-7.5Z"/>
        <path stroke="#7c2d12" stroke-width="1.6" stroke-linecap="round" stroke-linejoin="round" d="M9.9 10.9c1.3 1.5 3.1 2.1 6.1 2.1s4.8-.6 6.1-2.1M11.1 17.1c.7-.7 1.4-.7 2.1 0M18.8 17.1c.7-.7 1.4-.7 2.1 0"/>
        <path fill="#b91c1c" d="M12.4 20.7c1.6 1.4 5.6 1.4 7.2 0-.6 2.1-6.6 2.1-7.2 0Z"/>
        <circle cx="9.7" cy="19" r="1" fill="#fca5a5"/>
        <circle cx="22.3" cy="19" r="1" fill="#fca5a5"/>
    
            <rect x="19.6" y="5.2" width="7.2" height="8.7" rx="1.3" fill="#fef3c7" stroke="#92400e" stroke-width="1.4"/>
            <path stroke="#92400e" stroke-width="1.1" stroke-linecap="round" d="M21.4 8h3.6M21.4 10.2h3.2"/>
        </svg>
